<?xml version="1.0" standalone="no"?>
<!DOCTYPE svg PUBLIC "-//W3C//DTD SVG 20010904//EN"
 "http://www.w3.org/TR/2001/REC-SVG-20010904/DTD/svg10.dtd">
<svg version="1.0" xmlns="http://www.w3.org/2000/svg"
 width="1038.000000pt" height="420.000000pt" viewBox="0 0 1038.000000 420.000000"
 preserveAspectRatio="xMidYMid meet">
<metadata>
Created by potrace 1.16, written by Peter Selinger 2001-2019
</metadata>
<g transform="translate(0.000000,420.000000) scale(0.100000,-0.100000)"
fill="#10427f" stroke="none">
<path d="M8550 2981 c-169 -37 -330 -93 -601 -209 -499 -214 -729 -373 -821
-569 -82 -173 -23 -379 170 -591 l30 -32 156 0 c153 0 156 0 161 23 3 12 59
220 123 462 l118 440 -59 3 -59 3 6 31 c3 17 9 34 12 37 3 3 59 8 125 9 110 3
119 2 119 -15 0 -10 -25 -110 -55 -223 -30 -113 -55 -209 -55 -214 0 -5 19 10
42 33 67 66 118 86 218 86 130 0 170 -37 170 -157 0 -53 -63 -326 -116 -500
-5 -16 2 -18 60 -18 71 0 70 0 81 -47 l7 -33 -207 0 -207 0 7 33 c10 47 11 47
71 47 30 0 54 1 54 3 0 2 24 96 54 209 86 326 80 371 -47 370 -65 -1 -95 -12
-142 -53 -54 -48 -87 -124 -140 -319 -25 -96 -49 -183 -51 -192 -5 -16 2 -18
51 -18 48 0 56 -3 51 -16 -3 -9 -9 -27 -12 -40 l-6 -24 -217 -2 -216 -3 50
-37 c277 -205 624 -298 907 -244 321 62 589 339 728 755 22 66 41 136 43 156
l2 36 -238 1 c-131 0 -240 -2 -243 -5 -8 -8 -134 -486 -140 -530 -7 -56 5 -70
56 -70 52 0 88 26 115 82 19 40 22 41 67 41 27 0 48 -2 48 -5 0 -21 -55 -107
-84 -133 -47 -41 -133 -66 -202 -59 -95 10 -134 45 -134 120 0 28 73 322 120
486 11 36 17 68 14 73 -3 4 -38 8 -78 8 l-72 0 -16 35 -16 35 104 0 103 0 14
48 c7 26 29 104 48 175 l33 127 63 0 c44 0 63 -4 63 -12 0 -7 -18 -80 -40
-161 -22 -81 -40 -155 -40 -163 0 -12 37 -14 239 -14 l238 0 7 61 c16 158 0
308 -46 436 -39 109 -107 186 -200 228 -56 26 -76 29 -183 32 -89 2 -142 -2
-205 -16z"/>
<path d="M1197 2583 c-4 -3 -7 -177 -7 -385 l0 -378 55 0 c39 0 55 4 54 13 -1
6 -1 81 0 165 l1 152 220 0 220 0 0 -165 0 -165 55 0 55 0 -2 383 -3 382 -50
0 -50 0 -3 -167 -2 -168 -220 0 -220 0 0 148 c0 190 -1 192 -54 192 -24 0 -46
-3 -49 -7z"/>
<path d="M2283 2578 c-11 -15 -323 -739 -323 -750 0 -5 24 -8 53 -8 l52 0 45
108 46 107 59 5 60 5 3 48 3 47 -35 0 c-20 0 -36 4 -36 9 0 9 99 251 107 260
1 2 5 2 8 -1 6 -6 115 -255 115 -262 0 -3 -17 -6 -37 -8 -38 -3 -38 -3 -38
-48 l0 -45 65 -5 64 -5 46 -107 45 -108 56 0 56 0 -48 113 c-27 61 -102 234
-167 382 l-118 270 -36 3 c-20 2 -39 -2 -45 -10z"/>
<path d="M2928 2558 c-10 -67 -10 -67 141 -70 l136 -3 3 -333 2 -333 53 3 52
3 2 330 2 330 141 3 141 3 -3 47 -3 47 -331 3 -332 2 -4 -32z"/>
<path d="M3697 2584 c-4 -4 -7 -178 -7 -386 l0 -378 55 0 55 0 0 165 0 165
220 0 220 0 0 -165 0 -165 55 0 55 0 -2 383 -3 382 -50 0 -50 0 -3 -167 -2
-168 -220 0 -220 0 -2 168 -3 167 -45 3 c-25 2 -49 0 -53 -4z"/>
<path d="M4785 2582 c-12 -8 -13 -10 -115 -247 -43 -99 -110 -254 -149 -344
-39 -90 -71 -166 -71 -167 0 -2 24 -4 54 -4 l54 0 22 53 c12 28 34 78 48 110
l25 57 59 0 58 0 0 50 0 50 -35 0 c-19 0 -35 2 -35 4 0 4 111 270 114 273 4 4
116 -253 116 -266 0 -6 -15 -11 -35 -11 l-35 0 0 -50 0 -50 63 0 63 0 46 -107
47 -108 56 -3 c33 -2 56 1 54 6 -2 6 -78 179 -169 386 l-164 376 -31 0 c-16 0
-35 -4 -40 -8z"/>
<path d="M5290 2576 c0 -6 -2 -179 -3 -383 l-2 -373 52 0 53 0 2 297 3 296
210 -249 c116 -137 228 -270 250 -296 37 -45 42 -48 87 -48 l48 0 0 385 0 385
-50 0 -50 0 0 -296 c0 -163 -4 -294 -9 -292 -4 2 -119 134 -254 293 l-247 290
-45 1 c-28 1 -45 -3 -45 -10z"/>
<path d="M6160 2206 l0 -386 55 0 55 0 0 165 0 165 220 0 220 0 0 -165 0 -165
55 0 55 0 -2 383 -3 382 -50 0 -50 0 -3 -167 -2 -168 -220 0 -220 0 -2 168 -3
167 -52 3 -53 3 0 -385z"/>
<path d="M2280 1550 c0 -18 7 -20 70 -20 l70 0 0 -163 c0 -156 1 -163 20 -164
11 -1 20 4 20 10 5 186 3 277 -5 277 -5 0 -3 5 5 10 8 5 11 10 6 10 -6 0 -6 3
0 9 5 6 37 11 72 13 51 2 62 6 62 20 0 16 -14 18 -160 18 -153 0 -160 -1 -160
-20z"/>
<path d="M3010 1385 l0 -186 108 3 c96 3 107 5 107 21 0 16 -10 19 -85 20
l-85 2 0 60 0 60 83 3 c75 3 82 5 82 23 0 19 -6 20 -72 19 -40 -1 -79 -1 -86
-1 -9 1 -12 17 -10 59 l3 57 83 3 c74 3 82 5 82 22 0 19 -7 20 -105 20 l-105
0 0 -185z"/>
<path d="M3662 1388 l3 -183 108 -3 c102 -3 107 -2 107 18 0 18 -7 20 -62 21
-35 1 -67 2 -73 4 -5 1 -16 3 -22 3 -10 2 -13 41 -13 162 l0 160 -25 0 -25 0
2 -182z"/>
<path d="M4292 1388 l3 -183 108 -3 c107 -3 108 -2 105 19 -3 20 -8 22 -73 21
-92 -1 -101 2 -99 35 1 16 3 43 3 61 l1 32 81 0 c71 0 80 2 77 18 -3 14 -15
17 -86 17 -64 0 -81 3 -77 13 3 8 5 36 5 63 l0 49 85 0 c78 0 85 2 85 20 0 19
-7 20 -110 20 l-110 0 2 -182z"/>
<path d="M5048 1556 c-16 -8 -28 -12 -28 -8 -1 4 -9 -3 -19 -15 -10 -12 -21
-20 -23 -18 -13 13 -52 -90 -52 -136 0 -60 39 -122 99 -157 34 -19 50 -22 111
-18 82 4 114 20 114 56 0 14 -4 21 -8 15 -4 -5 -14 -12 -22 -14 -114 -30 -153
-26 -199 21 -47 48 -58 96 -37 153 30 78 95 109 185 86 25 -6 54 -13 64 -16
13 -3 17 2 17 22 0 20 -4 24 -20 20 -11 -3 -18 -2 -15 3 14 22 -126 27 -167 6z"/>
<path d="M5765 1553 c-44 -23 -65 -44 -86 -85 -59 -116 24 -258 154 -265 63
-2 99 5 90 20 -3 6 -1 7 6 3 18 -12 68 31 90 77 29 59 27 120 -5 174 -14 25
-30 41 -36 37 -6 -4 -8 -3 -5 3 9 15 -20 36 -38 29 -9 -3 -14 -2 -11 3 15 24
-115 28 -159 4z m144 -38 c16 -8 31 -12 35 -10 3 3 4 2 2 -1 -2 -3 7 -22 20
-41 36 -54 34 -121 -7 -168 -40 -45 -95 -62 -148 -46 -44 13 -101 71 -101 102
0 11 -5 30 -11 41 -8 15 -8 19 0 14 7 -5 11 2 11 17 0 13 13 36 30 52 16 15
27 33 23 38 -3 6 -1 7 5 3 7 -4 20 -2 29 3 26 15 80 13 112 -4z"/>
<path d="M6470 1384 c0 -171 1 -185 18 -182 15 3 18 20 22 146 l5 144 24 -26
c13 -14 28 -23 33 -20 5 3 8 -1 6 -9 -2 -8 12 -32 31 -53 l35 -37 27 33 c16
18 25 38 22 44 -3 6 -2 8 2 3 9 -8 55 30 55 45 0 5 -4 7 -8 4 -5 -3 -9 1 -9 9
0 10 4 12 12 5 7 -5 15 -7 18 -3 4 3 7 0 7 -8 0 -8 2 -72 3 -144 2 -123 3
-130 22 -130 19 0 20 8 23 183 2 169 1 182 -15 182 -24 0 -32 -7 -76 -61 -20
-25 -33 -49 -29 -53 4 -4 0 -6 -8 -4 -8 2 -14 -3 -12 -10 1 -8 -2 -11 -8 -7
-5 3 -13 -1 -16 -10 -5 -11 -10 -13 -19 -5 -6 5 -16 6 -20 2 -5 -4 -5 -1 -1 6
4 6 2 12 -3 12 -6 0 -10 6 -8 13 1 6 -5 11 -13 9 -8 -2 -12 0 -8 4 12 11 -72
104 -93 104 -18 0 -19 -10 -19 -186z"/>
</g>
</svg>
